<?xml version="1.0" encoding="UTF-8"?>
<svg width="162px" height="162px" viewBox="0 0 162 162" version="1.1" xmlns="http://www.w3.org/2000/svg" xmlns:xlink="http://www.w3.org/1999/xlink">
    <!-- Generator: Sketch 50.2 (55047) - http://www.bohemiancoding.com/sketch -->
    <title>Group</title>
    <desc>Created with Sketch.</desc>
    <defs>
        <linearGradient x1="50%" y1="12.3667811%" x2="50%" y2="100%" id="linearGradient-1">
            <stop stop-color="#C2F469" offset="0%"></stop>
            <stop stop-color="#429321" offset="100%"></stop>
        </linearGradient>
        <circle id="path-2" cx="75" cy="75" r="75"></circle>
        <filter x="-5.3%" y="-5.3%" width="113.3%" height="113.3%" filterUnits="objectBoundingBox" id="filter-3">
            <feMorphology radius="1" operator="dilate" in="SourceAlpha" result="shadowSpreadOuter1"></feMorphology>
            <feOffset dx="2" dy="2" in="shadowSpreadOuter1" result="shadowOffsetOuter1"></feOffset>
            <feGaussianBlur stdDeviation="2" in="shadowOffsetOuter1" result="shadowBlurOuter1"></feGaussianBlur>
            <feComposite in="shadowBlurOuter1" in2="SourceAlpha" operator="out" result="shadowBlurOuter1"></feComposite>
            <feColorMatrix values="0 0 0 0 0   0 0 0 0 0   0 0 0 0 0  0 0 0 0.5 0" type="matrix" in="shadowBlurOuter1"></feColorMatrix>
        </filter>
    </defs>
    <g id="Page-1" stroke="none" stroke-width="1" fill="none" fill-rule="evenodd">
        <g id="Desktop" transform="translate(-222.000000, -464.000000)">
            <g id="Group" transform="translate(226.000000, 468.000000)">
                <g id="parsley">
                    <g id="Oval">
                        <use fill="black" fill-opacity="1" filter="url(#filter-3)" xlink:href="#path-2"></use>
                        <use fill-opacity="0.5" fill="url(#linearGradient-1)" fill-rule="evenodd" xlink:href="#path-2"></use>
                    </g>
                    <path d="M124.087549,79.110652 C123.825945,79.479221 122.439607,79.0073545 121.301467,78.3709059 C115.430394,75.0877988 115.907076,74.7119806 109.83393,71.5435134 C103.760785,68.3750461 94.5560179,64.1157023 93.0257244,63.6189528 C92.0055287,63.2877865 90.9977793,63.7834734 90.002476,65.1060134 C85.22207,72.2277376 82.2270909,76.403763 81.0175385,77.6340895 C79.20321,79.4795794 76.5963655,80.2915425 75.2816748,80.0796462 C74.4052142,79.938382 74.282358,78.7952342 74.9131062,76.6502028 L76.3215558,73.532527 C75.2664045,74.8524929 74.1200207,75.8917181 72.8824043,76.6502028 C71.0259797,77.7879298 69.2669273,78.6948641 68.4267924,78.3709059 C67.8667025,78.1549338 68.178486,77.1288922 69.362143,75.2927809 C66.4662469,75.2173567 64.6930088,74.7903547 64.0424289,74.0117751 C63.391849,73.2331954 63.833556,72.0666915 65.36755,70.5122634 C63.9486043,70.8700232 63.5068972,70.4946977 64.0424289,69.3862868 C64.8457264,67.7236705 66.0995027,67.0871461 67.536311,66.0234938 C68.4941833,65.3143924 69.6400741,64.7248741 70.9739834,64.2549391 C69.2502829,64.3247702 67.8912223,64.4442363 66.8968014,64.6133376 C65.4051702,64.8669895 66.1504715,65.2895414 64.0424289,65.4336501 C61.9343863,65.5777588 60.2753974,65.4350699 59.6898683,65.1060134 C59.2995156,64.8866423 59.674001,64.3909555 60.8133245,63.6189528 C57.9427973,62.5796581 56.4183944,61.568509 56.2401158,60.5855056 C56.0618372,59.6025021 57.2117547,58.5487911 59.6898683,57.4243727 L64.7793195,56.5352126 L59.6898683,56.1821852 L56.5561726,54.4846755 C54.7562666,53.2488949 54.0025295,52.3052914 54.2949613,51.6538649 C54.587393,51.0024385 55.9476042,50.5950491 58.3755947,50.431697 L55.3851353,48.8826247 C54.6169842,47.9267884 54.2535928,47.3506166 54.2949613,47.1541091 C54.3363297,46.9576016 54.8210159,46.9576016 55.7490197,47.1541091 C54.6752966,45.889168 54.1906105,45.1356687 54.2949613,44.893611 C54.3993121,44.6515534 55.1530492,44.7809479 56.5561726,45.2817946 C55.7860956,44.4362394 55.5170446,43.8843189 55.7490197,43.6260329 C55.9809949,43.3677469 56.7457438,43.3677469 58.0432666,43.6260329 L60.8133245,44.5603591 C59.1263829,42.6320299 58.4519477,41.3781236 58.7900186,40.7986403 C59.1280896,40.219157 60.5971045,40.1110841 63.1970633,40.4744216 L66.5551051,41.9312087 L69.362143,44.893611 C68.1772276,44.073631 67.3554471,42.8486147 66.8968014,41.2185622 C66.2088329,38.7734834 66.4545475,36.8630795 66.8968014,36.1316481 C67.1916373,35.6440272 68.2168907,35.6440272 69.9725616,36.1316481 L72.4174409,37.9197341 C72.1076782,36.4330804 72.2626661,35.6897536 72.8824043,35.6897536 C73.5021425,35.6897536 74.4443139,36.4330804 75.7089185,37.9197341 L77.6267077,41.9312087 L79.4806446,44.5603591 L78.7760499,40.4744216 C78.8791409,38.1401041 78.997806,36.8359049 79.1320453,36.5618239 C79.2662845,36.2877429 79.7863894,36.2877429 80.69236,36.5618239 C81.0059384,34.7123745 81.4712306,33.6694871 82.0882364,33.4331618 C82.7052422,33.1968365 83.6802848,33.6880474 85.0133642,34.9067946 L86.5677621,36.1316481 C87.1586842,34.5237342 87.7582552,33.7578651 88.3664753,33.8340407 C88.9746954,33.9102164 89.520029,34.8194774 90.002476,36.5618239 L90.3858366,42.6257888 C90.7274233,41.196918 91.1813749,40.1109805 91.7476913,39.3679763 C92.597166,38.2534699 92.7589178,36.6314419 94.3222476,37.461238 C95.3644674,38.0144354 96.1159857,39.5044256 96.5768025,41.9312087 L96.169528,45.6101638 L93.3496703,58.129695 C92.7292222,59.6364817 93.0534146,60.8039622 94.3222476,61.6321364 C101.430814,65.4336501 104.232502,66.093162 110.595721,69.3862868 C116.95894,72.6794116 121.182516,75.6841822 122.522797,76.6502028 C123.863078,77.6162234 124.349154,78.7420831 124.087549,79.110652 Z M111.063396,72.954402 L111.063396,75.3442946 C113.996827,80.9849778 115.617543,84.1873704 115.925543,84.9514724 C116.233543,85.7155743 116.233543,86.5339337 115.925543,87.4065505 C115.811094,88.4558669 115.456332,88.9805251 114.861255,88.9805251 C114.266178,88.9805251 113.569884,88.4558669 112.772371,87.4065505 C113.285573,88.039987 113.133626,89.0276986 112.316529,90.3696852 C111.090885,92.3826652 110.269644,93.7256669 108.824373,93.8906813 C107.379102,94.0556958 107.086937,93.3216507 106.335364,90.3696852 C105.834316,88.4017082 105.834316,86.3166659 106.335364,84.1145583 C105.381772,86.90459 104.410263,88.9896323 103.420837,90.3696852 C101.936699,92.4397647 100.630143,94.1506858 99.326398,93.8906813 C98.4572347,93.7173451 98.0408385,92.1884551 98.0772094,89.3040114 L95.0744233,93.1743727 C94.3267352,94.2711025 93.7143443,94.6908616 93.2372507,94.4336501 C92.7601571,94.1764385 92.5379477,93.3067283 92.5706224,91.8245192 C90.5213327,92.375773 89.1956363,92.375773 88.5935333,91.8245192 C87.9914302,91.2732655 88.1063973,90.1647856 88.9384346,88.4990798 C87.9567111,89.0649502 87.393627,89.0649502 87.2491825,88.4990798 C87.0325157,87.6502741 87.5229461,86.8004971 88.277723,85.9107009 C88.7809076,85.3175034 89.5353843,84.8866766 90.5411532,84.6182204 C88.3465061,84.2689468 87.2491825,83.6334488 87.2491825,82.7117263 C87.2491825,81.7900038 88.3465061,80.7943169 90.5411532,79.7246657 L97.0688847,78.147029 L93.938887,77.7769118 C92.6605564,77.4918694 92.0627932,76.9463778 92.1455975,76.1404372 C92.2698038,74.9315262 93.4891686,74.2599481 94.3644049,73.6353102 C94.9478958,73.218885 95.6963735,72.9919156 96.609838,72.954402 C95.1827757,72.5190681 94.8172477,71.9699958 95.5132541,71.3071852 C96.2092605,70.6443747 97.6159844,70.2019105 99.7334259,69.9797927 L109.273312,71.8960524 L111.063396,72.954402 Z M110.964043,68.7368727 L108.854943,66.2039138 C105.918646,64.9334425 103.91876,63.9673781 102.855288,63.3057204 C101.791815,62.6440627 100.839125,61.7731317 99.9972174,60.6929274 C98.7275178,58.4372101 98.1499704,57.0362498 98.2645753,56.4900466 C98.3791802,55.9438433 99.2506785,55.9438433 100.87907,56.4900466 C100.097788,56.2012148 99.6198409,55.4091413 99.4452274,54.1138259 C99.1833072,52.1708528 99.0821247,50.9316812 99.9972174,49.9482985 C100.607279,49.2927101 101.715368,49.2927101 103.321484,49.9482985 L105.555577,52.4697829 C103.4036,49.3846098 102.06911,47.0485909 101.552108,45.4617263 C100.776606,43.0814293 100.613159,41.1663269 101.552108,40.181697 C102.178074,39.525277 103.512564,39.8858727 105.555577,41.2634841 C105.123951,39.7414174 104.954746,38.5601023 105.047963,37.7195388 C105.187788,36.4586935 105.608937,35.6298146 106.208646,35.3745681 C106.608451,35.2044037 107.126913,35.6007253 107.76403,36.5635329 C108.494384,34.5912567 109.340489,33.636911 110.302345,33.7004958 C111.264202,33.7640806 112.228972,34.8381365 113.196656,36.9226638 C114.526403,35.5785509 115.522483,35.062519 116.184897,35.3745681 C116.847311,35.6866171 117.191965,36.8342408 117.218861,38.8174391 L115.860705,44.2463942 C117.716036,42.0164138 119.053155,40.9014235 119.872062,40.9014235 C121.100422,40.9014235 121.326969,42.5261969 121.792316,44.2463942 C122.102548,45.3931925 122.102548,46.6443318 121.792316,47.9998122 L118.720254,54.9338942 C120.675661,51.9231578 122.352998,50.0226858 123.752263,49.2324782 C125.851161,48.0471668 126.86137,48.5215369 128.295394,49.9482985 C129.729419,51.3750601 129.750762,53.2299793 129.482703,54.9338942 C129.303997,56.0698375 128.496762,57.0234508 127.060998,57.7947341 C128.716853,57.4933283 129.657463,57.7303889 129.882828,58.5059157 C130.220876,59.669206 130.274755,59.8948132 127.060998,62.1760817 C124.918493,63.6969274 122.786959,64.6542842 120.666395,65.048152 C117.055259,66.0998503 114.857695,66.8369922 114.073702,67.2595778 C113.289709,67.6821634 112.701108,68.4468119 112.307901,69.5535231 L110.964043,68.7368727 Z" id="Combined-Shape" stroke="#33691E" fill="#43A047" transform="translate(92.135093, 63.941266) rotate(94.000000) translate(-92.135093, -63.941266) "></path>
                    <path d="M93.853895,109.735064 C93.5922901,110.103633 92.2059524,109.631767 91.0678124,108.995318 C85.1967397,105.712211 85.6734218,105.336393 79.6002759,102.167926 C73.5271301,98.9994584 64.3223635,94.7401146 62.7920699,94.2433651 C61.7718743,93.9121988 60.7641248,94.4078856 59.7688215,95.7304257 C54.9884156,102.85215 51.9934364,107.028175 50.7838841,108.258502 C48.9695555,110.103992 46.3627111,110.915955 45.0480203,110.704058 C44.1715598,110.562794 44.0487036,109.419646 44.6794517,107.274615 L46.0879014,104.156939 C45.0327501,105.476905 43.8863662,106.51613 42.6487498,107.274615 C40.7923252,108.412342 39.0332728,109.319276 38.1931379,108.995318 C37.633048,108.779346 37.9448315,107.753304 39.1284885,105.917193 C36.2325924,105.841769 34.4593544,105.414767 33.8087744,104.636187 C33.1581945,103.857608 33.5999015,102.691104 35.1338955,101.136676 C33.7149498,101.494435 33.2732428,101.11911 33.8087744,100.010699 C34.6120719,98.3480828 35.8658482,97.7115583 37.3026566,96.6479061 C38.2605288,95.9388047 39.4064196,95.3492864 40.7403289,94.8793514 C39.0166284,94.9491825 37.6575678,95.0686486 36.6631469,95.2377499 C35.1715157,95.4914018 35.916817,95.9139537 33.8087744,96.0580624 C31.7007319,96.202171 30.0417429,96.0594822 29.4562138,95.7304257 C29.0658611,95.5110546 29.4403465,95.0153678 30.57967,94.2433651 C27.7091429,93.2040704 26.18474,92.1929213 26.0064613,91.2099178 C25.8281827,90.2269144 26.9781002,89.1732034 29.4562138,88.048785 L34.545665,87.1596249 L29.4562138,86.8065975 L26.3225181,85.1090878 C24.5226121,83.8733072 23.768875,82.9297037 24.0613068,82.2782772 C24.3537386,81.6268508 25.7139497,81.2194614 28.1419402,81.0561093 L25.1514809,79.507037 C24.3833297,78.5512007 24.0199383,77.9750289 24.0613068,77.7785214 C24.1026752,77.5820139 24.5873614,77.5820139 25.5153653,77.7785214 C24.4416421,76.5135803 23.956956,75.760081 24.0613068,75.5180233 C24.1656576,75.2759657 24.9193947,75.4053602 26.3225181,75.9062069 C25.5524411,75.0606517 25.2833902,74.5087312 25.5153653,74.2504452 C25.7473404,73.9921592 26.5120894,73.9921592 27.8096122,74.2504452 L30.57967,75.1847714 C28.8927285,73.2564422 28.2182932,72.0025359 28.5563641,71.4230526 C28.8944351,70.8435693 30.36345,70.7354964 32.9634088,71.0988339 L36.3214506,72.555621 L39.1284885,75.5180233 C37.9435731,74.6980433 37.1217926,73.473027 36.6631469,71.8429745 C35.9751785,69.3978957 36.2208931,67.4874918 36.6631469,66.7560604 C36.9579829,66.2684395 37.9832363,66.2684395 39.7389071,66.7560604 L42.1837864,68.5441464 C41.8740238,67.0574927 42.0290116,66.3141659 42.6487498,66.3141659 C43.2684881,66.3141659 44.2106595,67.0574927 45.475264,68.5441464 L47.3930532,72.555621 L49.2469901,75.1847714 L48.5423955,71.0988339 C48.6454864,68.7645164 48.7641516,67.4603172 48.8983908,67.1862362 C49.03263,66.9121552 49.5527349,66.9121552 50.4587055,67.1862362 C50.7722839,65.3367868 51.2375761,64.2938994 51.8545819,64.0575741 C52.4715878,63.8212488 53.4466304,64.3124597 54.7797097,65.5312069 L56.3341076,66.7560604 C56.9250297,65.1481465 57.5246008,64.3822774 58.1328208,64.458453 C58.7410409,64.5346287 59.2863745,65.4438897 59.7688215,67.1862362 L60.1521822,73.2502011 C60.4937688,71.8213303 60.9477204,70.7353928 61.5140369,69.9923886 C62.3635115,68.8778822 62.5252634,67.2558542 64.0885931,68.0856503 C65.1308129,68.6388477 65.8823312,70.1288379 66.343148,72.555621 L65.9358736,76.2345761 L63.1160158,88.7541073 C62.4955677,90.260894 62.8197601,91.4283745 64.0885931,92.2565487 C71.1971591,96.0580624 73.9988477,96.7175743 80.3620665,100.010699 C86.7252853,103.303824 90.9488614,106.308595 92.2891427,107.274615 C93.6294239,108.240636 94.1154999,109.366495 93.853895,109.735064 Z M80.8297418,103.578814 L80.8297418,105.968707 C83.7631729,111.60939 85.3838884,114.811783 85.6918885,115.575885 C85.9998886,116.339987 85.9998886,117.158346 85.6918885,118.030963 C85.57744,119.080279 85.2226774,119.604937 84.6276005,119.604937 C84.0325237,119.604937 83.3362291,119.080279 82.5387166,118.030963 C83.0519186,118.664399 82.8999714,119.652111 82.0828749,120.994098 C80.8572302,123.007077 80.0359893,124.350079 78.5907186,124.515094 C77.1454478,124.680108 76.8532825,123.946063 76.1017097,120.994098 C75.6006611,119.026121 75.6006611,116.941078 76.1017097,114.738971 C75.1481172,117.529002 74.1766082,119.614045 73.1871828,120.994098 C71.7030447,123.064177 70.3964884,124.775098 69.0927435,124.515094 C68.2235802,124.341757 67.807184,122.812867 67.8435549,119.928424 L64.8407688,123.798785 C64.0930807,124.895515 63.4806899,125.315274 63.0035963,125.058062 C62.5265026,124.800851 62.3042932,123.931141 62.3369679,122.448932 C60.2876782,123.000185 58.9619819,123.000185 58.3598788,122.448932 C57.7577758,121.897678 57.8727429,120.789198 58.7047801,119.123492 C57.7230566,119.689363 57.1599726,119.689363 57.015528,119.123492 C56.7988612,118.274686 57.2892917,117.424909 58.0440686,116.535113 C58.5472531,115.941916 59.3017299,115.511089 60.3074987,115.242633 C58.1128516,114.893359 57.015528,114.257861 57.015528,113.336139 C57.015528,112.414416 58.1128516,111.418729 60.3074987,110.349078 L66.8352302,108.771441 L63.7052325,108.401324 C62.4269019,108.116282 61.8291387,107.57079 61.911943,106.764849 C62.0361494,105.555939 63.2555141,104.88436 64.1307504,104.259723 C64.7142413,103.843297 65.462719,103.616328 66.3761836,103.578814 C64.9491212,103.14348 64.5835933,102.594408 65.2795996,101.931598 C65.975606,101.268787 67.3823299,100.826323 69.4997714,100.604205 L79.0396573,102.520465 L80.8297418,103.578814 Z M80.7303885,99.361285 L78.6212888,96.8283261 C75.6849911,95.5578548 73.6851059,94.5917904 72.6216335,93.9301327 C71.558161,93.268475 70.6054708,92.397544 69.7635629,91.3173397 C68.4938633,89.0616224 67.9163159,87.6606621 68.0309209,87.1144589 C68.2028282,86.295154 70.3540433,87.7008848 70.6454156,87.1144589 C70.936788,86.5280329 69.4734932,86.6812112 69.211573,84.7382382 C68.9496527,82.7952651 68.8484702,81.5560935 69.7635629,80.5727108 C70.3736247,79.9171224 71.4817136,79.9171224 73.0878296,80.5727108 L75.3219221,83.0941952 C73.1699451,80.009022 71.8354557,77.6730032 71.3184539,76.0861386 C70.5429513,73.7058416 70.379505,71.7907392 71.3184539,70.8061093 C71.9444198,70.1496893 73.2789092,70.510285 75.3219221,71.8878964 C74.8902961,70.3658297 74.7210915,69.1845146 74.8143083,68.3439511 C74.9541335,67.0831058 75.3752824,66.2542269 75.9749911,65.9989803 C76.3747969,65.828816 76.8932583,66.2251376 77.5303751,67.1879452 C78.2607292,65.215669 79.1068344,64.2613233 80.0686909,64.3249081 C81.0305473,64.3884929 81.9953176,65.4625488 82.9630019,67.5470761 C84.2927486,66.2029632 85.2888288,65.6869313 85.9512425,65.9989803 C86.6136561,66.3110294 86.9583108,67.4586531 86.9852067,69.4418514 L85.62705,74.8708065 C87.4823814,72.6408261 88.8195006,71.5258358 89.6384074,71.5258358 C90.8667676,71.5258358 91.0933145,73.1506092 91.5586619,74.8708065 C91.8688935,76.0176047 91.8688935,77.2687441 91.5586619,78.6242245 C90.7894268,80.3604977 90.1916749,81.709709 89.7654061,82.6718584 C89.3391373,83.6340078 88.9128685,84.5961571 88.4865998,85.5583065 C90.4420069,82.5475701 92.1193432,80.6470981 93.5186085,79.8568905 C95.6175065,78.6715791 96.6277153,79.1459492 98.06174,80.5727108 C99.4957648,81.9994724 99.5171074,83.8543916 99.2490485,85.5583065 C99.0703426,86.6942498 98.2631076,87.6478631 96.8273435,88.4191464 C98.4831981,88.1177406 99.4238081,88.3548012 99.6491735,89.130328 C99.9872215,90.2936183 100.041101,90.5192255 96.8273435,92.800494 C94.6848387,94.3213397 92.5533044,95.2786965 90.4327404,95.6725643 C86.8216046,96.7242626 84.6240402,97.4614045 83.8400472,97.8839901 C83.0560542,98.3065757 82.4674539,99.0712242 82.0742462,100.177935 L80.7303885,99.361285 Z" id="Combined-Shape" stroke="#33691E" fill="#A5D6A7"></path>
                </g>
            </g>
        </g>
    </g>
</svg>